# xmcd CD database file
#
# Track frame offsets:
#	150
#	21639
#	40429
#	58756
#	75013
#	95615
#	109779
#	127156
#	149533
#	167073
#	185812
#	201939
#	222304
#	241618
#	264158
#	290597
#
# Disc length: 4107 seconds
#
# Revision: 8
# Processed by: cddbd v1.5.1PL0 Copyright (c) Steve Scherf et al.
# Submitted via: CDex 1.51
#
DISCID=f2100910
DTITLE=SOUTHERN ALL STARS - Happy! Two [CD2]
DYEAR=1995
DGENRE=Rock
TTITLE0=涙のキッス
TTITLE1=匂艶(にじいろ)The Night Club
TTITLE2=ゆけ!! 力道山
TTITLE3=フリフリ '65
TTITLE4=C調言葉に御用心
TTITLE5=忘れられた BIG WAVE
TTITLE6=ニッポンのヒール
TTITLE7=ミス・ブランニュー・デイ (Miss Brand-New Day)
TTITLE8=鎌倉物語
TTITLE9=Brown Cherry
TTITLE10=チャコの海岸物語
TTITLE11=You
TTITLE12=最後の日射病
TTITLE13=東京サリーちゃん
TTITLE14=クリスマス・ラブ (涙のあとには白い雪が降る)
TTITLE15=Ya Ya (あの時代を忘れない)
EXTD=YEAR: 1995
EXTT0=
EXTT1=
EXTT2=
EXTT3=
EXTT4=
EXTT5=
EXTT6=
EXTT7=
EXTT8=
EXTT9=
EXTT10=
EXTT11=
EXTT12=
EXTT13=
EXTT14=
EXTT15=
PLAYORDER=
